<svg width="25" height="23" viewBox="0 0 25 23" fill="none" xmlns="http://www.w3.org/2000/svg">
<path d="M0.839844 14.6963C1.20312 15.0596 1.74219 15.0479 2.09375 14.6963L4.15625 12.6338C11.3516 5.43848 15.4414 1.25488 16.8828 2.68457C17.8906 3.69238 15.418 6.54004 12.3711 10.1377C9.19531 13.8877 5.69141 17.7783 8.07031 20.1689C10.1328 22.2432 13.4727 19.5947 16.5781 16.583C18.9336 14.2979 20.7617 12.5283 21.3828 13.1377C21.9102 13.665 21.1602 14.708 20.2695 16.2432C19.1445 18.1885 17.7148 20.2744 19.0742 21.6338C20.1172 22.6768 21.8867 22.0674 24.0664 19.8291C24.5117 19.3955 24.5234 18.8564 24.1602 18.4932C23.7969 18.1416 23.2695 18.1533 22.9062 18.5049C21.207 20.0869 20.4805 20.5205 20.1992 20.2393C19.8711 19.9111 20.3398 19.208 21.5938 17.1455C23.1758 14.5557 23.75 13.0088 22.6719 11.9307C21.1953 10.4424 19.0039 11.79 15.3125 15.3057C11.6914 18.7393 10.0859 19.665 9.32422 18.915C8.39844 18.0127 9.61719 15.9736 13.6953 11.2861C18.2656 6.0127 20.0352 3.3291 18.125 1.43066C15.7695 -0.913086 13.1445 1.1377 2.91406 11.3799L0.839844 13.4424C0.488281 13.7939 0.5 14.333 0.839844 14.6963Z" fill="#000BAB"/>
</svg>
