<svg width="19" height="28" viewBox="0 0 19 28" fill="none" xmlns="http://www.w3.org/2000/svg">
<path d="M5.74609 21.8864H14.2305C14.6289 21.8864 14.8867 21.6403 14.8867 21.2418V19.3668C14.8867 16.5309 19 14.7028 19 9.64026C19 4.30823 15.3906 0.745728 9.98828 0.745728C4.58594 0.745728 0.988281 4.30823 0.988281 9.64026C0.988281 14.7028 5.10156 16.5309 5.10156 19.3668V21.2418C5.10156 21.6403 5.35938 21.8864 5.74609 21.8864ZM6.84766 19.3903C6.84766 15.9449 2.75781 14.1051 2.75781 9.65198C2.75781 5.36292 5.65234 2.51526 9.98828 2.51526C14.3359 2.51526 17.2305 5.36292 17.2305 9.65198C17.2305 14.1051 13.1406 15.9449 13.1406 19.3903V20.1168H6.84766V19.3903ZM6.19141 25.0504H13.7969C14.3945 25.0504 14.8867 24.5582 14.8867 23.9489C14.8867 23.3395 14.3945 22.8473 13.7969 22.8473H6.19141C5.59375 22.8473 5.10156 23.3395 5.10156 23.9489C5.10156 24.5582 5.59375 25.0504 6.19141 25.0504ZM9.98828 27.8746C11.6055 27.8746 12.7539 27.1364 12.8711 25.9996H7.11719C7.22266 27.1364 8.37109 27.8746 9.98828 27.8746Z" fill="#F5F6FB"/>
</svg>
