<svg width="28" height="27" viewBox="0 0 28 27" fill="none" xmlns="http://www.w3.org/2000/svg">
<path d="M14.6602 24.9658L26.0859 13.5166C26.9648 12.6377 27.0234 12.1338 27.0234 10.9033V6.4502C27.0234 5.20801 26.7305 4.82129 25.8398 3.93066L23.1445 1.23535C22.2656 0.356445 21.8789 0.0517578 20.6367 0.0517578H16.1719C14.9414 0.0517578 14.4492 0.110352 13.5703 0.989258L2.10938 12.4268C0.433594 14.1025 0.398438 15.8369 2.12109 17.5479L9.53906 24.9541C11.2617 26.665 12.9844 26.6416 14.6602 24.9658ZM13.3945 23.5479C12.5508 24.3916 11.6602 24.4033 10.8047 23.5361L3.52734 16.2705C2.67188 15.415 2.68359 14.5127 3.51562 13.6807L14.8945 2.3252C15.1289 2.09082 15.375 1.93848 15.7734 1.93848H20.707C21.0703 1.93848 21.3164 2.0791 21.5625 2.3252L24.7617 5.5127C25.0078 5.75879 25.1367 6.00488 25.1367 6.36816V11.3135C25.1367 11.7002 24.9961 11.9463 24.7617 12.1807L13.3945 23.5479ZM19.2656 9.42676C20.1797 9.42676 20.8711 8.71191 20.8711 7.82129C20.8711 6.91895 20.1797 6.21582 19.2656 6.21582C18.3398 6.21582 17.6602 6.91895 17.6602 7.82129C17.6602 8.71191 18.3398 9.42676 19.2656 9.42676Z" fill="#000BAB"/>
</svg>
