<svg width="25" height="25" viewBox="0 0 25 25" fill="none" xmlns="http://www.w3.org/2000/svg">
<path d="M12.0508 24.0012C18.5898 24.0012 24.0039 18.5754 24.0039 12.0481C24.0039 5.50903 18.5781 0.0949707 12.0391 0.0949707C5.51172 0.0949707 0.0976562 5.50903 0.0976562 12.0481C0.0976562 18.5754 5.52344 24.0012 12.0508 24.0012ZM12.0508 22.009C6.51953 22.009 2.10156 17.5793 2.10156 12.0481C2.10156 6.51685 6.50781 2.08716 12.0391 2.08716C17.5703 2.08716 22 6.51685 22.0117 12.0481C22.0234 17.5793 17.582 22.009 12.0508 22.009ZM8.67578 18.095L12.0391 15.634L15.4023 18.095C16.0938 18.6106 16.8086 18.0833 16.5508 17.2747L15.2148 13.302L18.6133 10.8762C19.2344 10.4309 19.0469 9.51685 18.1797 9.52856L14.0078 9.56372L12.7305 5.56763C12.4844 4.79419 11.5938 4.79419 11.3477 5.56763L10.0703 9.56372L5.89844 9.52856C5.04297 9.51685 4.83203 10.4192 5.46484 10.8879L8.86328 13.302L7.53906 17.2747C7.26953 18.0833 7.99609 18.6106 8.67578 18.095Z" fill="black"/>
</svg>
