<svg width="25" height="25" viewBox="0 0 25 25" fill="none" xmlns="http://www.w3.org/2000/svg">
<path d="M12.9336 24.4971C19.4727 24.4971 24.8867 19.0713 24.8867 12.5439C24.8867 6.00488 19.4609 0.59082 12.9219 0.59082C6.39453 0.59082 0.980469 6.00488 0.980469 12.5439C0.980469 19.0713 6.40625 24.4971 12.9336 24.4971ZM12.9336 22.5049C7.40234 22.5049 2.98438 18.0752 2.98438 12.5439C2.98438 7.0127 7.39062 2.58301 12.9219 2.58301C18.4531 2.58301 22.8828 7.0127 22.8945 12.5439C22.9062 18.0752 18.4648 22.5049 12.9336 22.5049ZM12.9219 6.91895C13.543 6.91895 14.0703 6.3916 14.0703 5.77051C14.0703 5.12598 13.543 4.61035 12.9219 4.61035C12.2891 4.61035 11.7734 5.12598 11.7734 5.77051C11.7734 6.3916 12.2891 6.91895 12.9219 6.91895ZM11.0586 14.3486C12.0078 15.2744 13.3086 15.0635 14.0938 13.9619L18.6758 7.56348C19.0977 6.97754 18.4766 6.36816 17.8906 6.77832L11.4336 11.3018C10.3203 12.0752 10.1211 13.3877 11.0586 14.3486ZM8.16406 8.98145C8.79688 8.98145 9.3125 8.4541 9.3125 7.83301C9.3125 7.18848 8.79688 6.68457 8.16406 6.68457C7.53125 6.68457 7.01562 7.18848 7.01562 7.83301C7.01562 8.4541 7.53125 8.98145 8.16406 8.98145ZM6.17188 13.6924C6.81641 13.6924 7.33203 13.1768 7.33203 12.5439C7.33203 11.9111 6.81641 11.3955 6.17188 11.3955C5.55078 11.3955 5.02344 11.9111 5.02344 12.5439C5.02344 13.1768 5.55078 13.6924 6.17188 13.6924ZM19.6719 13.6924C20.293 13.6924 20.8203 13.1768 20.8203 12.5439C20.8203 11.9111 20.293 11.3955 19.6719 11.3955C19.0273 11.3955 18.5234 11.9111 18.5234 12.5439C18.5234 13.1768 19.0273 13.6924 19.6719 13.6924ZM8.1875 18.415C8.82031 18.415 9.33594 17.8877 9.33594 17.2549C9.33594 16.6221 8.82031 16.1064 8.1875 16.1064C7.55469 16.1064 7.03906 16.6221 7.03906 17.2549C7.03906 17.8877 7.55469 18.415 8.1875 18.415ZM17.6562 18.415C18.2891 18.415 18.8047 17.8877 18.8047 17.2549C18.8047 16.6221 18.2891 16.1064 17.6562 16.1064C17.0234 16.1064 16.5078 16.6221 16.5078 17.2549C16.5078 17.8877 17.0234 18.415 17.6562 18.415Z" fill="#000BAB"/>
</svg>
