<svg width="15" height="17" fill="none" xmlns="http://www.w3.org/2000/svg">
  <path d="M5.455.749C6.1.383 6.422.2 6.763.125c.329-.072.669-.072.997 0C8.1.2 8.423.383 9.068.75l1.824 1.034L12.7 2.845c.639.376.958.564 1.194.822.226.248.396.542.498.863.106.333.109.703.114 1.444l.017 2.097-.017 2.097c-.005.741-.008 1.112-.114 1.445a2.32 2.32 0 01-.498.863c-.236.257-.555.445-1.194.821l-1.808 1.063-1.824 1.034c-.645.365-.967.548-1.308.623a2.32 2.32 0 01-.997 0c-.34-.075-.663-.258-1.308-.623L3.631 14.36l-1.808-1.063c-.639-.376-.958-.564-1.194-.821a2.319 2.319 0 01-.498-.863c-.105-.333-.108-.704-.114-1.445L0 8.071l.017-2.097c.006-.74.009-1.111.114-1.444.102-.32.272-.615.498-.863.236-.258.555-.446 1.194-.822l1.808-1.062L5.455.749z" fill="#FFFFFF"/>
</svg>