<svg width="25" height="25" viewBox="0 0 25 25" fill="none" xmlns="http://www.w3.org/2000/svg">
<path d="M12.0508 24.0012C18.5898 24.0012 24.0039 18.5754 24.0039 12.0481C24.0039 5.50903 18.5781 0.0949707 12.0391 0.0949707C5.51172 0.0949707 0.0976562 5.50903 0.0976562 12.0481C0.0976562 18.5754 5.52344 24.0012 12.0508 24.0012ZM12.0508 22.009C6.51953 22.009 2.10156 17.5793 2.10156 12.0481C2.10156 6.51685 6.50781 2.08716 12.0391 2.08716C17.5703 2.08716 22 6.51685 22.0117 12.0481C22.0234 17.5793 17.582 22.009 12.0508 22.009ZM7.85547 16.677C7.85547 17.1692 8.18359 17.4622 8.62891 17.4622C9.08594 17.4622 9.39062 17.1692 9.39062 16.677V12.9504C9.39062 10.7825 10.1406 9.52856 11.3945 9.22388V16.8176C11.3945 17.2043 11.6641 17.4622 12.0391 17.4622C12.3672 17.4622 12.6719 17.2043 12.6719 16.8176V9.21216C13.9375 9.49341 14.7227 10.7473 14.7227 12.9504V16.677C14.7227 17.1692 15.0273 17.4622 15.4727 17.4622C15.918 17.4622 16.2344 17.1692 16.2344 16.677V12.8684C16.2344 9.77466 14.8164 8.02856 12.6719 7.74731V6.54028C12.6719 6.13013 12.3672 5.91919 12.0391 5.91919C11.6641 5.91919 11.3945 6.13013 11.3945 6.54028V7.75903C9.25 8.04028 7.85547 9.78638 7.85547 12.8684V16.677Z" fill="black"/>
</svg>
