<svg width="18" height="27" viewBox="0 0 18 27" fill="none" xmlns="http://www.w3.org/2000/svg">
<path d="M6.29297 26.441L16.9453 12.7418C17.1445 12.4957 17.25 12.2614 17.25 11.9918C17.25 11.5465 16.8984 11.2067 16.4062 11.2067H9.78516L13.2773 2.08948C13.7461 0.882446 12.457 0.226196 11.6953 1.23401L1.04297 14.9215C0.84375 15.1793 0.738281 15.4137 0.738281 15.6715C0.738281 16.1285 1.08984 16.4684 1.58203 16.4684H8.20312L4.71094 25.5739C4.24219 26.7809 5.53125 27.4371 6.29297 26.441ZM10.9102 14.7223H3.66797L10.2773 5.94495L7.07812 12.9528H14.3086L7.69922 21.7301L10.9102 14.7223Z" fill="#F5F6FB"/>
</svg>
