<svg width="34" height="22" viewBox="0 0 34 22" fill="none" xmlns="http://www.w3.org/2000/svg">
<path d="M23.082 10.9723C25.8594 10.9723 28.1445 8.48792 28.1445 5.46448C28.1445 2.4762 25.8828 0.109009 23.082 0.109009C20.293 0.109009 18.0078 2.51135 18.0195 5.48792C18.0195 8.49963 20.293 10.9723 23.082 10.9723ZM9.58203 11.2301C11.9961 11.2301 13.9766 9.06213 13.9766 6.40198C13.9766 3.80042 12.0195 1.70276 9.58203 1.70276C7.16797 1.70276 5.17578 3.83557 5.1875 6.42542C5.1875 9.07385 7.16797 11.2301 9.58203 11.2301ZM23.082 9.20276C21.3594 9.20276 19.9062 7.56213 19.9062 5.48792C19.8945 3.44885 21.3359 1.87854 23.082 1.87854C24.8281 1.87854 26.2578 3.42542 26.2578 5.46448C26.2578 7.5387 24.8047 9.20276 23.082 9.20276ZM9.58203 9.48401C8.14062 9.48401 6.93359 8.11292 6.93359 6.42542C6.93359 4.77307 8.12891 3.44885 9.58203 3.44885C11.0586 3.44885 12.2422 4.74963 12.2422 6.40198C12.2422 8.11292 11.0234 9.48401 9.58203 9.48401ZM3.05469 21.9762H12.2539C11.6914 21.6598 11.2695 20.9567 11.3516 20.2418H2.77344C2.52734 20.2418 2.42188 20.1481 2.42188 19.9254C2.42188 17.0192 5.73828 14.3004 9.57031 14.3004C11.0352 14.3004 12.3711 14.652 13.5078 15.3199C13.8711 14.8512 14.3047 14.441 14.832 14.0778C13.3203 13.0817 11.5039 12.566 9.57031 12.566C4.66016 12.566 0.675781 16.1285 0.675781 20.0309C0.675781 21.3317 1.47266 21.9762 3.05469 21.9762ZM15.7109 21.9762H30.4297C32.3867 21.9762 33.3125 21.3903 33.3125 20.1012C33.3125 17.0309 29.4336 12.5895 23.0703 12.5895C16.707 12.5895 12.8281 17.0309 12.8281 20.1012C12.8281 21.3903 13.7656 21.9762 15.7109 21.9762ZM15.1484 20.2067C14.8438 20.2067 14.7148 20.1246 14.7148 19.8785C14.7148 17.9567 17.6914 14.359 23.0703 14.359C28.4492 14.359 31.4258 17.9567 31.4258 19.8785C31.4258 20.1246 31.2969 20.2067 30.9922 20.2067H15.1484Z" fill="white"/>
</svg>
