<svg width="15" height="17" viewBox="0 0 15 17" fill="none" xmlns="http://www.w3.org/2000/svg">
<path d="M5.71879 1.9699C6.39321 1.58764 6.6344 1.4574 6.8782 1.40376C7.13072 1.3482 7.39229 1.3482 7.64481 1.40376C7.88861 1.4574 8.1298 1.58764 8.80422 1.9699L10.6248 3.00179L12.4287 4.06249C13.097 4.45543 13.3303 4.59918 13.4987 4.78351C13.6731 4.97441 13.8039 5.20094 13.882 5.4474L14.3919 5.28573L13.882 5.4474C13.9574 5.68537 13.9653 5.95936 13.9714 6.73455L13.9881 8.82715L13.9714 10.9197C13.9653 11.6949 13.9574 11.9689 13.882 12.2069C13.8039 12.4534 13.6731 12.6799 13.4987 12.8708C13.3303 13.0551 13.097 13.1989 12.4287 13.5918L10.6247 14.6525L8.80422 15.6844C8.1298 16.0667 7.88861 16.1969 7.6448 16.2505C7.39229 16.3061 7.13072 16.3061 6.87821 16.2505L6.76325 16.773L6.8782 16.2505C6.6344 16.1969 6.39321 16.0667 5.71879 15.6844L3.89822 14.6525L2.09431 13.5918C1.42605 13.1989 1.19267 13.0551 1.02431 12.8708C0.849939 12.6799 0.719152 12.4534 0.64101 12.2069C0.565563 11.9689 0.557755 11.6949 0.551593 10.9197L0.534959 8.82715L0.551593 6.73455C0.557755 5.95936 0.565563 5.68537 0.641011 5.4474C0.719152 5.20094 0.849939 4.97441 1.02431 4.78351C1.19267 4.59918 1.42605 4.45543 2.09431 4.06249L3.89823 3.00179L5.71879 1.9699Z" stroke="#12F2CE" stroke-width="1.06988"/>
</svg>
