<svg width="80" height="89" viewBox="0 0 80 89" fill="none" xmlns="http://www.w3.org/2000/svg">
<path opacity="0.4" d="M30.3127 4.32494C33.8938 2.29519 35.5883 1.3412 37.3703 0.949113C39.1027 0.567946 40.8973 0.567946 42.6297 0.949113C44.4117 1.3412 46.1062 2.29519 49.6873 4.32494L59.7325 10.0186L59.7362 10.0207L69.6859 15.8712C73.2343 17.9576 74.9078 18.9481 76.1383 20.2953C77.3346 21.6051 78.2319 23.1592 78.768 24.8501C79.3194 26.5894 79.3405 28.5339 79.3733 32.6501L79.4651 44.192V44.2006L79.3733 55.7425C79.3405 59.8587 79.3194 61.8032 78.768 63.5425C78.2319 65.2334 77.3346 66.7875 76.1383 68.0972C74.9078 69.4445 73.2343 70.435 69.686 72.5214L59.7362 78.3719L59.7289 78.3762L49.6873 84.0676C46.1062 86.0974 44.4117 87.0514 42.6297 87.4435C40.8973 87.8246 39.1027 87.8246 37.3703 87.4435C35.5883 87.0514 33.8938 86.0974 30.3127 84.0676L20.2711 78.3762L20.2638 78.3719L10.314 72.5214C6.76568 70.435 5.09224 69.4445 3.86167 68.0972C2.66537 66.7875 1.7681 65.2334 1.232 63.5425C0.680549 61.8032 0.659462 59.8587 0.626742 55.7425L0.534959 44.1963L0.626742 32.6501C0.659462 28.5339 0.680549 26.5894 1.232 24.8501C1.7681 23.1592 2.66537 21.6051 3.86167 20.2953C5.09224 18.9481 6.76568 17.9576 10.314 15.8712L20.2674 10.0186L30.3127 4.32494Z" stroke="#000BAB" stroke-width="1.06988"/>
</svg>
