<svg width="166" height="122" viewBox="0 0 166 122" fill="none" xmlns="http://www.w3.org/2000/svg">
<path fill-rule="evenodd" clip-rule="evenodd" d="M112.077 0.960938L120.871 9.35399L120.871 65.5391L112.084 74.5825L96.9199 71.4522V4.03443L112.077 0.960938Z" fill="#000BAB"/>
<path fill-rule="evenodd" clip-rule="evenodd" d="M79.5253 7.56445L87.0684 14.3875L87.0687 60.503L79.5262 67.8574L68.2783 65.5346V9.84677L79.5253 7.56445Z" fill="#000BAB"/>
<path fill-rule="evenodd" clip-rule="evenodd" d="M51.8611 13.1797L58.4323 18.6547L58.4328 56.239L51.862 62.1453L43.4845 60.4154L43.4736 14.8814L51.8611 13.1797Z" fill="#000BAB"/>
<path d="M24.3319 120.601L13.2791 92.6282H11.1378L0.174805 120.601H5.59853L7.51556 114.999H16.9335L18.9466 120.601H24.3319ZM15.51 111.251H8.90662L12.2083 101.064L15.51 111.251ZM44.1238 120.595V116.242H32.1927L43.707 94.5663V92.9823H25.7751V97.3353H37.0587L25.5829 119.011V120.595H44.1238ZM66.9612 94.4569C65.0634 93.1561 62.5503 92.5186 59.3896 92.5186C55.7096 92.5186 52.6836 93.8901 50.3178 96.6463C47.9713 99.3766 46.7853 102.79 46.7853 106.872C46.7853 111.264 47.856 114.709 49.9844 117.253C52.1066 119.796 55.0876 121.058 58.9408 121.058C62.7939 121.058 65.7046 120.002 67.6919 117.871L65.4224 113.917C63.9543 115.778 61.9283 116.705 59.3382 116.705C57.0622 116.705 55.2607 115.836 53.8888 114.103C52.5362 112.371 51.863 110.034 51.863 107.078C51.863 104.122 52.5939 101.695 54.0555 99.7756C55.5236 97.8309 57.4022 96.8714 59.6909 96.8714C62.1143 96.8714 63.8646 97.4187 64.9545 98.5134L66.9612 94.4565V94.4569ZM88.606 120.595V116.242H76.175V92.9759H71.2896V120.595H88.606V120.595ZM90.9023 106.563C90.9023 111.058 91.8832 114.593 93.8515 117.175C95.8261 119.757 98.6598 121.058 102.359 121.058C106.379 121.058 109.475 119.758 111.655 117.137C113.854 114.522 114.944 111 114.944 106.563C114.944 102.12 113.886 98.6811 111.803 96.2148C109.719 93.7421 106.699 92.5186 102.737 92.5186C99.1471 92.5186 96.275 93.8773 94.1144 96.6077C91.9731 99.3188 90.9025 102.629 90.9025 106.563L90.9023 106.563ZM95.9799 106.563C95.9799 103.607 96.5569 101.257 97.7237 99.5053C98.884 97.7602 100.557 96.8716 102.737 96.8716C107.488 96.8716 109.866 100.111 109.866 106.563C109.866 113.163 107.238 116.705 102.359 116.705C100.275 116.705 98.698 115.817 97.6081 114.052C96.5183 112.281 95.9797 109.776 95.9797 106.563H95.9799ZM118.92 111.953C118.92 114.876 119.785 117.137 121.51 118.701C123.26 120.266 125.722 121.058 128.928 121.058C132.107 121.058 134.633 120.247 136.531 118.643C138.422 117.04 139.384 114.818 139.384 111.972V92.9757H134.499V111.599C134.499 114.76 132.428 116.705 128.889 116.705C127.305 116.705 126.062 116.228 125.158 115.308C124.254 114.387 123.805 113.176 123.805 111.689V92.9755H118.92V111.953L118.92 111.953ZM150.758 120.595C160.298 120.595 165.074 115.636 165.074 105.7C165.074 101.798 163.888 98.6876 161.542 96.3306C159.189 93.9738 156.009 92.7889 151.996 92.7889C151.002 92.7889 148.534 92.8597 144.649 92.9949V120.594H150.758V120.595ZM149.534 97.2773C150.489 97.1806 151.246 97.142 151.771 97.142C157.253 97.142 159.997 100.104 159.997 106.003C159.997 109.229 159.305 111.753 157.894 113.544C156.496 115.334 154.56 116.242 152.092 116.242C151.169 116.242 150.322 116.203 149.534 116.126V97.2774V97.2773Z" fill="black"/>
</svg>
