<svg width="193" height="49" viewBox="0 0 193 49" fill="none" xmlns="http://www.w3.org/2000/svg">
<path fill-rule="evenodd" clip-rule="evenodd" d="M0.260742 0.326111H48.2605V48.3266H0.260742V0.326111ZM9.82823 9.89618H38.6943V38.7566H9.82823V9.89618Z" fill="#FEFEFE"/>
<path d="M73.5853 28.2778H67.5197L66.658 30.3057H63.8193L69.1244 18.4784H71.9969L77.3017 30.3057H74.4469L73.5853 28.2778ZM70.561 21.1478L68.5166 25.9467H72.5881L70.561 21.1478Z" fill="#FEFEFE"/>
<path d="M78.3963 18.4784H87.4358V19.6273L81.7587 27.8389H87.5705V30.3057H78.1094V28.9372L83.8874 20.7424H78.3963V18.4784Z" fill="#FEFEFE"/>
<path d="M89.8779 30.3057V18.4784H92.4968V30.3057H89.8779Z" fill="#FEFEFE"/>
<path d="M103.725 26.1658L103.556 22.4487V18.4784H106.208V30.3057H103.945L98.0653 22.7362L98.1662 26.6221V30.3057H95.4971V18.4784H97.7611L103.725 26.1658Z" fill="#FEFEFE"/>
<path d="M111.772 20.8268H108.174V18.4784C111.62 18.4784 114.526 18.4784 117.99 18.4784V20.8268H114.391V30.3057H111.772V20.8268Z" fill="#FEFEFE"/>
<path d="M128.948 30.3057H119.943C119.943 26.3689 119.943 22.4149 119.943 18.4784H128.712V20.8946H122.529V23.1754H128.357V25.4902H122.529V27.8724H128.948V30.3057Z" fill="#FEFEFE"/>
<path d="M134.02 18.4784V27.8892H139.934V30.3057H131.385V18.4784H134.02Z" fill="#FEFEFE"/>
<path d="M150.875 30.3057H141.869C141.869 26.3689 141.869 22.4149 141.869 18.4784H150.638V20.8946H144.454V23.1754H150.283V25.4902H144.454V27.8724H150.875V30.3057Z" fill="#FEFEFE"/>
<path d="M163.393 28.8689C162.177 30.0681 160.606 30.6093 158.848 30.6093C154.337 30.6093 152.546 27.7032 152.529 24.4761C152.513 21.4178 154.506 18.2075 158.848 18.2075C160.47 18.2075 161.974 18.833 163.191 20.0325L161.535 21.6712C160.825 20.9786 159.794 20.6913 158.848 20.6913C156.162 20.6913 155.115 22.7693 155.131 24.4929C155.148 26.2165 156.077 28.1765 158.848 28.1765C159.794 28.1765 161.045 27.7538 161.755 27.0438L163.393 28.8689Z" fill="#FEFEFE"/>
<path d="M170.71 30.5919C166.925 30.5919 164.323 28.2438 164.323 24.3917C164.323 20.5396 166.925 18.1909 170.71 18.1909C174.494 18.1909 177.096 20.5396 177.096 24.3917C177.096 28.2438 174.494 30.5919 170.71 30.5919ZM170.71 20.5563C168.462 20.5563 166.908 22.2459 166.908 24.3917C166.908 26.6051 168.462 28.2105 170.71 28.2105C173.007 28.2105 174.511 26.5883 174.511 24.3917C174.511 22.2291 173.007 20.5563 170.71 20.5563Z" fill="#FEFEFE"/>
<path d="M189.708 22.0936L186.059 26.689H185.586L182.055 22.0598V30.322H179.419V18.4949C180.416 18.4949 181.446 18.4949 182.443 18.4949L185.89 23.0399L189.353 18.4949H192.344V30.322H189.708V22.0936Z" fill="#FEFEFE"/>
</svg>
