<svg width="364" height="401" viewBox="0 0 364 401" fill="none" xmlns="http://www.w3.org/2000/svg">
<path d="M137.221 17.628C153.339 8.49245 161.397 3.92469 169.927 2.04799C178.133 0.242466 186.634 0.242467 194.84 2.04799C203.369 3.92469 211.428 8.49245 227.546 17.628L273.152 43.4777L318.342 70.0491C334.312 79.4397 342.297 84.135 348.188 90.5835C353.854 96.7873 358.104 104.149 360.644 112.158C363.283 120.484 363.357 129.747 363.504 148.273L363.921 200.694L363.504 253.115C363.357 271.641 363.283 280.904 360.644 289.229C358.104 297.239 353.854 304.6 348.188 310.804C342.297 317.253 334.312 321.948 318.342 331.339L273.152 357.91L227.546 383.76C211.428 392.895 203.369 397.463 194.84 399.34C186.634 401.145 178.133 401.145 169.927 399.34C161.397 397.463 153.339 392.895 137.221 383.76L91.6145 357.91L46.4248 331.339C30.4544 321.948 22.4691 317.253 16.5791 310.804C10.9124 304.6 6.6622 297.239 4.12281 289.229C1.48331 280.904 1.40968 271.641 1.26241 253.115L0.845703 200.694L1.26241 148.273C1.40968 129.747 1.48331 120.484 4.12281 112.158C6.6622 104.149 10.9124 96.7873 16.5791 90.5835C22.4691 84.135 30.4543 79.4397 46.4248 70.0491L91.6145 43.4777L137.221 17.628Z" fill="white"/>
</svg>
