<svg width="16" height="24" viewBox="0 0 16 24" fill="none" xmlns="http://www.w3.org/2000/svg">
<path d="M2.63281 23.1403H13.3672C15.125 23.1403 15.9922 22.2614 15.9922 20.3512V12.277C15.9922 10.6129 15.3242 9.73401 13.9648 9.54651V6.71057C13.9648 2.2926 11.0703 0.15979 8 0.15979C4.92969 0.15979 2.03516 2.2926 2.03516 6.71057V9.54651C0.675781 9.73401 0.0078125 10.6129 0.0078125 12.277V20.3512C0.0078125 22.2614 0.875 23.1403 2.63281 23.1403ZM3.92188 6.46448C3.92188 3.52307 5.80859 1.96448 8 1.96448C10.1914 1.96448 12.0781 3.52307 12.0781 6.46448V9.51135H3.92188V6.46448ZM2.70312 21.3824C2.16406 21.3824 1.89453 21.1364 1.89453 20.4801V12.1598C1.89453 11.5035 2.16406 11.2692 2.70312 11.2692H13.3086C13.8477 11.2692 14.1055 11.5035 14.1055 12.1598V20.4801C14.1055 21.1364 13.8477 21.3824 13.3086 21.3824H2.70312Z" fill="#F5F6FB"/>
</svg>
