<svg width="24" height="26" viewBox="0 0 24 26" fill="none" xmlns="http://www.w3.org/2000/svg">
<path d="M1.80469 20.3199L11.0273 25.5465C11.6836 25.9215 12.3047 25.9215 12.9727 25.5465L22.1836 20.3199C23.2617 19.7106 23.8242 19.0895 23.8242 17.4137V8.13245C23.8242 6.9137 23.3789 6.15198 22.3945 5.58948L14.0977 0.87854C12.6797 0.0582275 11.3086 0.0582275 9.89062 0.87854L1.60547 5.58948C0.609375 6.15198 0.164062 6.9137 0.164062 8.13245V17.4137C0.164062 19.0895 0.738281 19.7106 1.80469 20.3199ZM11.1914 4.27698H12.7969V2.30823C12.9727 2.37854 13.1484 2.46057 13.3242 2.55432L21.0469 6.96057L12.7969 11.6246V9.76135H11.1914V11.6246L2.95312 6.96057L10.6758 2.55432C10.8516 2.46057 11.0273 2.37854 11.1914 2.30823V4.27698ZM11.1914 8.56604H12.7969V5.46057H11.1914V8.56604ZM2.85938 18.7731L2.80078 18.7496L4.21875 18.0348L3.49219 16.5934L1.94531 17.3668V8.50745L10.2422 13.2535L8.41406 14.1676L9.12891 15.609L11.0742 14.6364V23.4489L2.85938 18.7731ZM19.7695 18.0348L21.1875 18.7496L21.1406 18.7731L12.9141 23.4489V14.6364L14.8594 15.609L15.5742 14.1676L13.7461 13.2535L22.043 8.50745V17.3668L20.5078 16.5934L19.7695 18.0348ZM5.28516 17.5192L8.05078 16.1364L7.33594 14.6949L4.57031 16.0778L5.28516 17.5192ZM15.9375 16.1364L18.7148 17.5192L19.4297 16.0778L16.6523 14.6949L15.9375 16.1364Z" fill="#F5F6FB"/>
</svg>
