<svg width="25" height="27" viewBox="0 0 25 27" fill="none" xmlns="http://www.w3.org/2000/svg">
<path d="M2.30469 20.9385L11.5273 26.165C12.1836 26.54 12.8047 26.54 13.4727 26.165L22.6836 20.9385C23.7617 20.3291 24.3242 19.708 24.3242 18.0322V8.75098C24.3242 7.53223 23.8789 6.77051 22.8945 6.20801L14.5977 1.49707C13.1797 0.676758 11.8086 0.676758 10.3906 1.49707L2.10547 6.20801C1.10938 6.77051 0.664062 7.53223 0.664062 8.75098V18.0322C0.664062 19.708 1.23828 20.3291 2.30469 20.9385ZM11.6914 4.89551H13.2969V2.92676C13.4727 2.99707 13.6484 3.0791 13.8242 3.17285L21.5469 7.5791L13.2969 12.2432V10.3799H11.6914V12.2432L3.45312 7.5791L11.1758 3.17285C11.3516 3.0791 11.5273 2.99707 11.6914 2.92676V4.89551ZM11.6914 9.18457H13.2969V6.0791H11.6914V9.18457ZM3.35938 19.3916L3.30078 19.3682L4.71875 18.6533L3.99219 17.2119L2.44531 17.9854V9.12598L10.7422 13.8721L8.91406 14.7861L9.62891 16.2275L11.5742 15.2549V24.0674L3.35938 19.3916ZM20.2695 18.6533L21.6875 19.3682L21.6406 19.3916L13.4141 24.0674V15.2549L15.3594 16.2275L16.0742 14.7861L14.2461 13.8721L22.543 9.12598V17.9854L21.0078 17.2119L20.2695 18.6533ZM5.78516 18.1377L8.55078 16.7549L7.83594 15.3135L5.07031 16.6963L5.78516 18.1377ZM16.4375 16.7549L19.2148 18.1377L19.9297 16.6963L17.1523 15.3135L16.4375 16.7549Z" fill="#000BAB"/>
</svg>
