<svg width="25" height="27" viewBox="0 0 25 27" fill="none" xmlns="http://www.w3.org/2000/svg">
<path d="M0.0976562 18.3723C0.0976562 22.3098 2.65234 25.6028 5.75781 25.6028H9.63672C11.1719 26.4114 13.0469 26.9036 15.1445 26.9036H16.7617C18.2266 26.9036 19.4922 26.8098 20.3242 26.6106C21.9531 26.2122 22.9609 25.0872 22.9609 23.6458C22.9609 23.3528 22.9141 23.0715 22.8203 22.802C23.6289 22.2043 24.0859 21.3137 24.0859 20.3411C24.0859 19.8606 24.0039 19.3918 23.8164 19.0051C24.3672 18.4543 24.6836 17.6458 24.6836 16.7903C24.6836 16.2395 24.543 15.6536 24.2969 15.2317C24.6367 14.7512 24.8359 14.1067 24.8359 13.3918C24.8359 11.6458 23.4648 10.2629 21.7305 10.2629H17.2891C17.0078 10.2629 16.8203 10.134 16.8203 9.89966C16.8203 8.62231 18.8242 5.65747 18.8242 3.27856C18.8242 1.66138 17.6875 0.489502 16.1289 0.489502C14.9805 0.489502 14.2188 1.08716 13.457 2.54028C12.0273 5.27075 10.3281 7.70825 7.55078 11.1067H5.3125C2.42969 11.1067 0.0976562 14.3762 0.0976562 18.3723ZM6.90625 18.3137C6.90625 15.7825 7.48047 14.1653 9.07422 12.0325C10.832 9.677 13.2695 6.85278 15.0391 3.34888C15.4727 2.45825 15.7773 2.25903 16.1992 2.25903C16.7031 2.25903 17.0547 2.62231 17.0547 3.27856C17.0547 5.177 15.0508 8.05981 15.0508 9.89966C15.0508 11.2239 16.1523 12.0325 17.5469 12.0325H21.7305C22.4922 12.0325 23.0664 12.6184 23.0664 13.3918C23.0664 13.9543 22.8906 14.3176 22.4219 14.7629C22.2109 14.9622 22.1875 15.1965 22.3633 15.4192C22.75 15.9817 22.9141 16.3333 22.9141 16.7903C22.9141 17.3528 22.6562 17.8215 22.1172 18.2317C21.8242 18.4426 21.707 18.7473 21.8828 19.1106C22.1758 19.6614 22.3164 19.9192 22.3164 20.3411C22.3164 20.9739 21.918 21.4543 21.0742 21.8879C20.8047 22.0403 20.7461 22.2629 20.8516 22.5208C21.1445 23.2356 21.1914 23.3528 21.1914 23.6458C21.1914 24.22 20.7695 24.677 19.9023 24.8879C19.2109 25.0637 18.1094 25.1458 16.7734 25.134L15.1562 25.1106C10.2461 25.0637 6.90625 22.2981 6.90625 18.3137ZM1.86719 18.3723C1.86719 15.3489 3.50781 12.8762 5.3125 12.8762H6.40234C5.52344 14.5168 5.13672 16.2278 5.13672 18.2786C5.13672 20.4817 5.93359 22.3801 7.35156 23.8333H5.75781C3.68359 23.8333 1.86719 21.3372 1.86719 18.3723Z" fill="black"/>
</svg>
