<svg width="20" height="25" viewBox="0 0 20 25" fill="none" xmlns="http://www.w3.org/2000/svg">
<path d="M10.0156 24.2004C10.2031 24.2004 10.5078 24.1301 10.8008 23.9661C17.4688 20.2278 19.7539 18.6458 19.7539 14.3684V5.40356C19.7539 4.1731 19.2266 3.78638 18.2305 3.3645C16.8477 2.79028 12.3828 1.18481 11 0.704346C10.6836 0.598877 10.3438 0.528564 10.0156 0.528564C9.6875 0.528564 9.34766 0.622314 9.04297 0.704346C7.66016 1.10278 3.18359 2.802 1.80078 3.3645C0.816406 3.77466 0.277344 4.1731 0.277344 5.40356V14.3684C0.277344 18.6458 2.57422 20.2161 9.23047 23.9661C9.53516 24.1301 9.82812 24.2004 10.0156 24.2004ZM10.0156 22.0793C9.82812 22.0793 9.64062 22.009 9.28906 21.7981C3.875 18.5168 2.14062 17.5559 2.14062 13.9348V5.76685C2.14062 5.36841 2.21094 5.21606 2.53906 5.08716C4.32031 4.38403 7.77734 3.22388 9.54688 2.52075C9.73438 2.43872 9.88672 2.41528 10.0156 2.41528C10.1445 2.41528 10.2969 2.45044 10.4844 2.52075C12.2539 3.22388 15.6875 4.46606 17.5039 5.08716C17.8203 5.20435 17.8906 5.36841 17.8906 5.76685V13.9348C17.8906 17.5559 16.1562 18.5051 10.7422 21.7981C10.4023 22.009 10.2031 22.0793 10.0156 22.0793Z" fill="black"/>
</svg>
